<svg id="Capa_1" enable-background="new 0 0 512 512" height="512" viewBox="0 0 512 512" width="512" xmlns="http://www.w3.org/2000/svg"><g><g><g><g><g><g><g><circle cx="256" cy="256" fill="#fe8205" r="256"/></g></g></g></g></g></g><path d="m512 256.176-170.629-170.629-8.681 36.143-61.69-61.69-25.91 70.008-44.461-44.461-30 49.846 89.818 89.818-138.961 32.006 62.639 62.639-48.396 104.856 84.857 84.857c11.576 1.603 23.398 2.431 35.414 2.431 141.326 0 255.905-114.521 256-255.824z" fill="#f45611"/><g><path d="m241 60h30v75.393h-30z" fill="#fff"/></g><g><path d="m256.121 60h14.879v75.393h-14.879z" fill="#e9edf5"/></g><g><g><path d="m170.629 85.547h30v49.846h-30z" fill="#fff"/></g><g><path d="m311.371 85.547h30v49.846h-30z" fill="#e9edf5"/></g></g><path d="m258.828 318.962h-71.568l13.083-66.047-29.428-5.83-35.186 177.628 29.428 5.829 16.16-81.58h77.511z" fill="#7e8596"/><path d="m370.462 395.392-29.377-148.307-29.428 5.83 13.083 66.047h-68.619v30h74.562l10.351 52.259z" fill="#636978"/><g><circle cx="355.748" cy="398.306" fill="#333940" r="31.061"/></g><g><path d="m350.875 273.998h-189.75c-30.494 0-55.214-24.72-55.214-55.214v-58.187h300.178v58.187c0 30.494-24.72 55.214-55.214 55.214z" fill="#636978"/></g><g><path d="m256.121 160.597v113.401h94.754c30.494 0 55.214-24.72 55.214-55.214v-58.187z" fill="#414952"/></g></g></svg>